<svg width="24" height="164" viewBox="0 0 24 164" xmlns="http://www.w3.org/2000/svg"><title>icons</title><g fill="none" fill-rule="evenodd"><path d="M14.58 1.468a1.774 1.774 0 0 0-3.374 1.096l4.588 14.115a1.774 1.774 0 0 0 2.158 1.1c.94-.272 1.515-1.272 1.215-2.197-.01-.035-4.586-14.115-4.586-14.115" fill="#E9A823"/><path d="M7.472 3.777a1.774 1.774 0 0 0-3.375 1.097L8.685 18.99a1.774 1.774 0 0 0 2.158 1.1c.942-.272 1.516-1.272 1.215-2.197-.01-.035-4.586-14.116-4.586-14.116" fill="#3FB991"/><path d="M20.355 13.158a1.774 1.774 0 0 0-1.097-3.375L5.143 14.37a1.774 1.774 0 0 0-1.1 2.16c.27.94 1.272 1.515 2.197 1.214.035-.01 14.115-4.586 14.115-4.586" fill="#E01664"/><path d="M8.085 17.144l3.374-1.096-1.097-3.374L6.99 13.77l1.095 3.374z" fill="#462948"/><path d="M15.194 14.835l3.374-1.097c-.3-.918-.684-2.103-1.097-3.374l-3.373 1.096 1.097 3.375z" fill="#CD2026"/><path d="M18.045 6.05a1.774 1.774 0 0 0-1.096-3.376L2.833 7.262a1.774 1.774 0 0 0-1.1 2.158c.27.942 1.27 1.516 2.196 1.215.035-.01 14.115-4.586 14.115-4.586" fill="#70CBDB"/><path d="M5.775 10.036c.92-.3 2.103-.683 3.374-1.096L8.052 5.566 4.678 6.662l1.097 3.374z" fill="#1B947D"/><path d="M12.884 7.726l3.374-1.096-1.097-3.375-3.373 1.097 1.097 3.374z" fill="#65873A"/><path d="M23.263 38.43a9.198 9.198 0 0 1-2.643.725c.95-.57 1.68-1.472 2.023-2.546-.89.526-1.874.91-2.922 1.115a4.602 4.602 0 0 0-7.842 4.197 13.065 13.065 0 0 1-9.484-4.808 4.58 4.58 0 0 0-.623 2.314 4.6 4.6 0 0 0 2.048 3.83 4.583 4.583 0 0 1-2.085-.575v.058c0 2.23 1.586 4.09 3.69 4.513a4.61 4.61 0 0 1-2.077.08 4.607 4.607 0 0 0 4.3 3.195 9.233 9.233 0 0 1-5.716 1.97 9.36 9.36 0 0 1-1.098-.065A13.026 13.026 0 0 0 7.886 54.5c8.465 0 13.094-7.01 13.094-13.093 0-.2-.005-.398-.014-.595.9-.65 1.68-1.46 2.297-2.382" fill="#5FA9DD"/><g fill="#3C5999"><path d="M19.98 71.887H3.518a1.02 1.02 0 0 0-1.02 1.022V89.37c0 .564.456 1.022 1.02 1.022h8.864v-7.167H9.97v-2.793h2.41v-2.06c0-2.39 1.46-3.692 3.593-3.692 1.02 0 1.9.076 2.155.11v2.498h-1.48c-1.158 0-1.383.552-1.383 1.36v1.784h2.766l-.36 2.793h-2.405v7.167h4.716a1.02 1.02 0 0 0 1.022-1.022V72.91a1.02 1.02 0 0 0-1.02-1.023"/></g><g><path d="M2.496 121.484h17.617v-3.623H2.496v3.624z" fill="#346DB5"/><path d="M2.496 116.818h17.617v-3.624H2.496v3.624z" fill="#4AA1D9"/><path d="M17.317 108.317H5.29c-1.544 0-2.794 1.297-2.794 2.894v.942h17.616v-.94c0-1.598-1.25-2.895-2.795-2.895" fill="#8FD7F4"/><path d="M2.496 122.505v.94c0 1.6 1.25 2.896 2.793 2.896h7.523v3.828l3.692-3.827h.812c1.544 0 2.796-1.296 2.796-2.894v-.94H2.496z" fill="#1F5295"/></g><g><path d="M18.04 150.5c0-3.682-2.76-6.68-6.152-6.68H6.15c-3.39 0-6.15 2.998-6.15 6.68 0 3.096 1.942 5.757 4.67 6.485v4.053a.483.483 0 0 0 .804.363l4.79-4.218h1.624c3.392 0 6.15-2.997 6.15-6.68z" fill="#DA5A47"/><path d="M19.443 150.98a.483.483 0 0 0 0 .967c1.95 0 3.536 1.754 3.536 3.91 0 2.126-1.506 3.842-3.426 3.908a.483.483 0 0 0-.466.484v1.554l-1.807-1.886a.484.484 0 0 0-.347-.15h-1.558c-1.12 0-2.15-.57-2.824-1.562a.483.483 0 1 0-.798.543c.845 1.243 2.2 1.985 3.623 1.985h1.35l2.497 2.606a.483.483 0 0 0 .832-.333v-2.317c2.217-.322 3.89-2.355 3.89-4.833 0-2.69-2.018-4.877-4.5-4.877" fill="#DA5A47"/><path d="M13.784 149.046a.483.483 0 0 0-.483-.483H4.687a.483.483 0 0 0 0 .966H13.3a.483.483 0 0 0 .484-.484M8.915 151.628h-4.23a.483.483 0 0 0 0 .966h4.23a.483.483 0 0 0 0-.966" fill="#FFF"/></g></g></svg>