<svg width="20" height="20" viewBox="0 0 20 20" xmlns="http://www.w3.org/2000/svg" xmlns:xlink="http://www.w3.org/1999/xlink"><title>footer-arcustech-logo</title><defs><path id="a" d="M0 .142h19.963V11.64H0"/></defs><g fill="none" fill-rule="evenodd"><g transform="translate(0 4)"><mask id="b" fill="#fff"><use xlink:href="#a"/></mask><path d="M19.963 11.58c-.34.02-.574.044-.808.044-1.965.003-3.93-.026-5.895.015-.807.015-1.34-.292-1.76-.95-.984-1.543-1.987-3.07-2.992-4.597-.513-.78-.683-.774-1.197.01-.403.616-.796 1.24-1.21 1.85-.41.61-.688.63-1.11.07-.376-.503-.72-1.028-1.078-1.544-.336-.485-.315-.963.008-1.45.574-.862 1.09-1.767 1.717-2.59C6.75.978 8.173.076 10.102.146c1.44.052 2.562.727 3.474 1.755.594.67 1.1 1.426 1.592 2.176 1.42 2.165 2.817 4.347 4.22 6.524.187.292.352.6.575.98" fill="#10426A" mask="url(#b)"/></g><path d="M3.083 15.625c-.818 0-1.636.014-2.453-.005-.655-.015-.793-.25-.444-.81a151.368 151.368 0 0 1 2.347-3.64c.355-.533.658-.548 1-.04.82 1.22 1.62 2.456 2.4 3.702.342.547.195.774-.48.79-.79.016-1.58.003-2.37.003" fill="#10426A"/></g></svg>